<?xml version="1.0" encoding="UTF-8"?>
<svg width="680" height="420" version="1.1" viewBox="0 0 680 420" xmlns="http://www.w3.org/2000/svg">
	<defs>
		<marker id="Arrow2" overflow="visible" markerHeight="5.5999999" markerWidth="7.6999998" orient="auto-start-reverse" preserveAspectRatio="xMidYMid" viewBox="0 0 7.7 5.6">
			<path id="arrow2L" transform="scale(.7)" d="m-2-4 11 4-11 4c2-2.33 2-5.66 0-8z" fill="#fff" fill-rule="evenodd"/>
		</marker>
	</defs>
	<g transform="translate(-80.422 -88.869)">
		<g aria-label="Pattern: th String:  tth-hash ">
			<path d="m142.5 104.61c0-3.968-3.1573-7.808-8.064-7.808h-9.5573c-0.64 0-1.7493 0-1.7493 1.28 0 1.3227 1.1093 1.3227 1.7493 1.3227h1.28v20.864h-1.28c-0.68267 0-1.7493 0-1.7493 1.3227 0 1.28 1.1093 1.28 1.7493 1.28h5.504c0.64 0 1.7493 0 1.7493-1.28 0-1.3227-1.1093-1.3227-1.7493-1.3227h-1.28v-7.8507h5.3333c4.9493 0 8.064-3.84 8.064-7.808zm-2.944 0c0 2.2613-1.8347 5.2053-5.9307 5.2053h-4.5227v-10.411h4.5227c4.096 0 5.9307 2.944 5.9307 5.2053z" fill="#fff"/>
			<path d="m166.57 121.55c0-1.28-1.0667-1.28-1.7067-1.28-1.792 0-2.2187-0.21333-2.56-0.34133v-9.216c0-3.0293-2.304-6.6133-8.448-6.6133-1.8347 0-6.1867 0-6.1867 3.1147 0 1.28 0.896 1.9627 1.92 1.9627 0.64 0 1.8347-0.384 1.8773-1.9627 0-0.34133 0.0427-0.384 0.896-0.46933 0.59733-0.0427 1.152-0.0427 1.536-0.0427 3.2427 0 5.4613 1.3227 5.4613 4.352-7.552 0.128-12.8 2.2613-12.8 6.3573 0 2.944 2.688 5.7173 7.04 5.7173 1.5787 0 4.224-0.29867 6.2293-1.6213 0.93867 1.3227 2.9867 1.3653 4.608 1.3653 1.1947 0 2.1333 0 2.1333-1.3227zm-7.2107-4.3947c0 0.98133 0 1.8773-1.664 2.6453-1.536 0.72533-3.456 0.72533-3.7973 0.72533-2.6453 0-4.3947-1.4507-4.3947-3.1147 0-2.0907 3.6693-3.6693 9.856-3.84z" fill="#fff"/>
			<path d="m185.98 117.5c0-0.768 0-1.664-1.4933-1.664-1.408 0-1.4507 0.896-1.4507 1.6213-0.0427 2.6453-2.4747 3.072-3.456 3.072-3.2853 0-3.2853-2.2187-3.2853-3.2853v-10.155h6.9973c0.64 0 1.7067 0 1.7067-1.28 0-1.3227-1.024-1.3227-1.7067-1.3227h-6.9973v-3.4987c0-0.81067 0-1.7493-1.4507-1.7493-1.4933 0-1.4933 0.896-1.4933 1.7493v3.4987h-3.712c-0.68266 0-1.7493 0-1.7493 1.3227 0 1.28 1.0667 1.28 1.7067 1.28h3.7547v10.411c0 4.096 2.9013 5.632 6.016 5.632 3.1573 0 6.6133-1.8347 6.6133-5.632z" fill="#fff"/>
			<path d="m208.38 117.5c0-0.768 0-1.664-1.4933-1.664-1.408 0-1.4507 0.896-1.4507 1.6213-0.0427 2.6453-2.4747 3.072-3.456 3.072-3.2853 0-3.2853-2.2187-3.2853-3.2853v-10.155h6.9973c0.64 0 1.7067 0 1.7067-1.28 0-1.3227-1.024-1.3227-1.7067-1.3227h-6.9973v-3.4987c0-0.81067 0-1.7493-1.4507-1.7493-1.4933 0-1.4933 0.896-1.4933 1.7493v3.4987h-3.712c-0.68266 0-1.7493 0-1.7493 1.3227 0 1.28 1.0667 1.28 1.7067 1.28h3.7547v10.411c0 4.096 2.9013 5.632 6.016 5.632 3.1573 0 6.6133-1.8347 6.6133-5.632z" fill="#fff"/>
			<path d="m231.42 118.22c0-1.1947-1.2373-1.1947-1.4933-1.1947-0.76801 0-1.1093 0.128-1.408 0.93867-0.93866 2.176-3.2427 2.56-4.4373 2.56-3.2 0-6.4-2.1333-7.0827-5.8027h12.715c0.896 0 1.7067 0 1.7067-1.5787 0-4.864-2.7307-9.0453-8.2773-9.0453-5.0773 0-9.1733 4.2667-9.1733 9.5147 0 5.2053 4.3093 9.5147 9.8133 9.5147 5.632 0 7.6373-3.84 7.6373-4.9067zm-3.0293-6.0587h-11.349c0.59734-3.1147 3.1147-5.4613 6.1013-5.4613 2.2187 0 4.864 1.0667 5.248 5.4613z" fill="#fff"/>
			<path d="m254.8 106.87c0-0.85334-0.512-2.6453-4.0533-2.6453-2.176 0-4.9067 0.768-7.2533 3.456v-1.4507c0-1.3227-0.256-1.7493-1.7067-1.7493h-4.6933c-0.64 0-1.7067 0-1.7067 1.28 0 1.3227 1.024 1.3227 1.7067 1.3227h3.456v13.184h-3.456c-0.64 0-1.7067 0-1.7067 1.28 0 1.3227 1.024 1.3227 1.7067 1.3227h11.136c0.64 0 1.7493 0 1.7493-1.28 0-1.3227-1.1093-1.3227-1.7493-1.3227h-4.736v-5.3333c0-4.0107 2.5173-8.1067 7.68-8.1067 0.0427 1.024 0.768 1.8773 1.8347 1.8773 0.93867 0 1.792-0.68266 1.792-1.8347z" fill="#fff"/>
			<path d="m278.27 121.59c0-1.3227-1.0667-1.3227-1.7493-1.3227h-1.8773v-9.8987c0-4.3093-2.176-6.144-5.5467-6.144-2.8587 0-4.7787 1.4507-5.5893 2.2613 0-1.3653 0-2.0053-1.7067-2.0053h-3.1147c-0.68266 0-1.7493 0-1.7493 1.3227 0 1.28 1.1093 1.28 1.7067 1.28h1.92v13.184h-1.8773c-0.68266 0-1.7493 0-1.7493 1.3227 0 1.28 1.1093 1.28 1.7067 1.28h6.784c0.59733 0 1.7067 0 1.7067-1.28 0-1.3227-1.0667-1.3227-1.7493-1.3227h-1.8773v-7.552c0-4.2667 3.1573-5.888 5.3333-5.888 2.2613 0 2.8587 1.1947 2.8587 3.7547v9.6853h-1.664c-0.68266 0-1.7493 0-1.7493 1.3227 0 1.28 1.152 1.28 1.7493 1.28h6.528c0.59733 0 1.7067 0 1.7067-1.28z" fill="#fff"/>
			<path d="m292.69 107.17c0-1.5787-1.28-2.688-2.6453-2.688-1.6213 0-2.688 1.3227-2.688 2.6453 0 1.5787 1.28 2.688 2.6453 2.688 1.6213 0 2.688-1.3227 2.688-2.6453zm0 13.056c0-1.5787-1.28-2.688-2.6453-2.688-1.6213 0-2.688 1.3227-2.688 2.6453 0 1.5787 1.28 2.688 2.6453 2.688 1.6213 0 2.688-1.3227 2.688-2.6453z" fill="#fff"/>
			<path d="m342.78 117.5c0-0.768 0-1.664-1.4933-1.664-1.408 0-1.4507 0.896-1.4507 1.6213-0.0427 2.6453-2.4747 3.072-3.456 3.072-3.2853 0-3.2853-2.2187-3.2853-3.2853v-10.155h6.9973c0.64 0 1.7067 0 1.7067-1.28 0-1.3227-1.024-1.3227-1.7067-1.3227h-6.9973v-3.4987c0-0.81067 0-1.7493-1.4507-1.7493-1.4933 0-1.4933 0.896-1.4933 1.7493v3.4987h-3.712c-0.68267 0-1.7493 0-1.7493 1.3227 0 1.28 1.0667 1.28 1.7067 1.28h3.7547v10.411c0 4.096 2.9013 5.632 6.016 5.632 3.1573 0 6.6133-1.8347 6.6133-5.632z" fill="#fff"/>
			<path d="m367.87 121.59c0-1.3227-1.0667-1.3227-1.7493-1.3227h-1.8773v-9.8987c0-4.3093-2.176-6.144-5.5467-6.144-2.8587 0-4.7787 1.4507-5.5893 2.2613v-7.936c0-1.3227-0.256-1.7493-1.7067-1.7493h-3.1147c-0.68267 0-1.7493 0-1.7493 1.3227 0 1.28 1.1093 1.28 1.7067 1.28h1.92v20.864h-1.8773c-0.68267 0-1.7493 0-1.7493 1.3227 0 1.28 1.1093 1.28 1.7067 1.28h6.784c0.59733 0 1.7067 0 1.7067-1.28 0-1.3227-1.0667-1.3227-1.7493-1.3227h-1.8773v-7.552c0-4.2667 3.1573-5.888 5.3333-5.888 2.2613 0 2.8587 1.1947 2.8587 3.7547v9.6853h-1.664c-0.68267 0-1.7493 0-1.7493 1.3227 0 1.28 1.152 1.28 1.7493 1.28h6.528c0.59734 0 1.7067 0 1.7067-1.28z" fill="#fff"/>
			<path d="m142.16 169.12c0-2.7307-1.536-4.5227-2.048-5.0773-1.7493-1.7067-2.9013-2.0053-6.2293-2.7733l-3.456-0.768c-1.792-0.512-3.4133-2.0053-3.4133-4.0107 0-2.176 2.0907-4.224 5.12-4.224 5.0347 0 5.6747 4.0107 5.9307 5.3333 0.128 0.93867 0.59734 1.1947 1.4507 1.1947 1.4933 0 1.4933-0.896 1.4933-1.7493v-5.632c0-0.68267 0-1.7493-1.28-1.7493-1.024 0-1.2373 0.72534-1.5787 2.0053-1.7493-1.4933-4.0533-2.0053-5.9733-2.0053-4.736 0-7.936 3.3707-7.936 6.9973 0 2.8587 1.9627 5.6747 5.504 6.6987l4.9067 1.152c1.1947 0.256 4.736 1.1093 4.736 4.8213 0 2.2187-1.8347 4.736-5.2053 4.736-1.1947 0-3.2853-0.17067-4.992-1.3227-1.792-1.152-1.9627-2.944-2.0053-3.712-0.0427-0.72534-0.0853-1.4933-1.4507-1.4933-1.4933 0-1.4933 0.896-1.4933 1.7493v5.632c0 0.68267 0 1.7493 1.28 1.7493 0.93867 0 1.1947-0.59733 1.5787-1.9627 1.7067 1.28 4.3093 1.9627 7.04 1.9627 4.9493 0 8.0213-3.7547 8.0213-7.552z" fill="#fff"/>
			<path d="m163.58 170.83c0-0.768 0-1.664-1.4933-1.664-1.408 0-1.4507 0.896-1.4507 1.6213-0.0427 2.6453-2.4747 3.072-3.456 3.072-3.2853 0-3.2853-2.2187-3.2853-3.2853v-10.155h6.9973c0.64 0 1.7067 0 1.7067-1.28 0-1.3227-1.024-1.3227-1.7067-1.3227h-6.9973v-3.4987c0-0.81066 0-1.7493-1.4507-1.7493-1.4933 0-1.4933 0.896-1.4933 1.7493v3.4987h-3.712c-0.68266 0-1.7493 0-1.7493 1.3227 0 1.28 1.0667 1.28 1.7067 1.28h3.7547v10.411c0 4.096 2.9013 5.632 6.016 5.632 3.1573 0 6.6133-1.8347 6.6133-5.632z" fill="#fff"/>
			<path d="m187.6 160.21c0-0.85334-0.512-2.6453-4.0533-2.6453-2.176 0-4.9067 0.768-7.2533 3.456v-1.4507c0-1.3227-0.256-1.7493-1.7067-1.7493h-4.6933c-0.64 0-1.7067 0-1.7067 1.28 0 1.3227 1.024 1.3227 1.7067 1.3227h3.456v13.184h-3.456c-0.64 0-1.7067 0-1.7067 1.28 0 1.3227 1.024 1.3227 1.7067 1.3227h11.136c0.64 0 1.7493 0 1.7493-1.28 0-1.3227-1.1093-1.3227-1.7493-1.3227h-4.736v-5.3333c0-4.0107 2.5173-8.1067 7.68-8.1067 0.0427 1.024 0.768 1.8773 1.8347 1.8773 0.93867 0 1.792-0.68267 1.792-1.8347z" fill="#fff"/>
			<path d="m208.64 174.93c0-1.3227-1.1093-1.3227-1.7493-1.3227h-4.48v-14.037c0-1.3227-0.256-1.7493-1.7067-1.7493h-6.0587c-0.64 0-1.7493 0-1.7493 1.28 0 1.3227 1.1093 1.3227 1.7493 1.3227h4.8213v13.184h-5.1627c-0.68267 0-1.7493 0-1.7493 1.3227 0 1.28 1.1093 1.28 1.7493 1.28h12.587c0.64 0 1.7493 0 1.7493-1.28zm-6.0587-22.4c0-1.1947-0.93867-2.1333-2.1333-2.1333s-2.1333 0.93867-2.1333 2.1333c0 1.1947 0.93866 2.1333 2.1333 2.1333s2.1333-0.93867 2.1333-2.1333z" fill="#fff"/>
			<path d="m233.47 174.93c0-1.3227-1.0667-1.3227-1.7493-1.3227h-1.8773v-9.8987c0-4.3093-2.176-6.144-5.5467-6.144-2.8587 0-4.7787 1.4507-5.5893 2.2613 0-1.3653 0-2.0053-1.7067-2.0053h-3.1147c-0.68267 0-1.7493 0-1.7493 1.3227 0 1.28 1.1093 1.28 1.7067 1.28h1.92v13.184h-1.8773c-0.68267 0-1.7493 0-1.7493 1.3227 0 1.28 1.1093 1.28 1.7067 1.28h6.784c0.59733 0 1.7067 0 1.7067-1.28 0-1.3227-1.0667-1.3227-1.7493-1.3227h-1.8773v-7.552c0-4.2667 3.1573-5.888 5.3333-5.888 2.2613 0 2.8587 1.1947 2.8587 3.7547v9.6853h-1.664c-0.68267 0-1.7493 0-1.7493 1.3227 0 1.28 1.152 1.28 1.7493 1.28h6.528c0.59734 0 1.7067 0 1.7067-1.28z" fill="#fff"/>
			<path d="m255.74 159.65c0-0.98133-0.81066-2.304-3.1147-2.304-0.46933 0-2.56 0.0427-4.5227 1.4933-0.68266-0.46933-2.176-1.28-4.1387-1.28-4.0107 0-7.04 3.2-7.04 6.8267 0 1.8347 0.72533 3.2427 1.3653 4.0533-0.46933 0.68267-0.85333 1.6213-0.85333 2.9013 0 1.4933 0.59733 2.56 0.98133 3.072-3.1573 1.92-3.1573 4.8213-3.1573 5.2907 0 3.6693 4.48 6.272 9.9413 6.272s9.9413-2.6453 9.9413-6.272c0-1.5787-0.768-3.712-2.944-4.864-0.55467-0.29867-2.3467-1.2373-6.1867-1.2373h-2.9867c-0.34134 0-0.896 0-1.2373-0.0853-0.64 0-0.896 0-1.408-0.59734-0.46933-0.59733-0.512-1.536-0.512-1.536 0-0.17066 0.0853-0.768 0.256-1.1947 0.128 0.0853 1.7493 1.0667 3.84 1.0667 3.9253 0 7.04-3.072 7.04-6.8693 0-1.28-0.384-2.5173-1.1093-3.712 0.896-0.512 1.92-0.68266 2.4747-0.72533 0.256 1.152 1.2373 1.4507 1.664 1.4507 0.72534 0 1.7067-0.512 1.7067-1.7493zm-7.68 4.736c0 2.432-1.8773 4.3093-4.096 4.3093-2.304 0-4.096-2.0053-4.096-4.2667 0-2.432 1.8773-4.3093 4.096-4.3093 2.304 0 4.096 2.0053 4.096 4.2667zm4.608 15.317c0 1.8773-3.2 3.712-7.4667 3.712s-7.4667-1.8347-7.4667-3.712c0-0.768 0.384-2.1333 1.7493-2.9867 1.0667-0.68267 1.4507-0.68267 4.5653-0.68267 3.7973 0 8.6187 0 8.6187 3.6693z" fill="#fff"/>
			<path d="m270.29 160.5c0-1.5787-1.28-2.688-2.6453-2.688-1.6213 0-2.688 1.3227-2.688 2.6453 0 1.5787 1.28 2.688 2.6453 2.688 1.6213 0 2.688-1.3227 2.688-2.6453zm0 13.056c0-1.5787-1.28-2.688-2.6453-2.688-1.6213 0-2.688 1.3227-2.688 2.6453 0 1.5787 1.28 2.688 2.6453 2.688 1.6213 0 2.688-1.3227 2.688-2.6453z" fill="#fff"/>
			<path d="m342.78 170.83c0-0.768 0-1.664-1.4933-1.664-1.408 0-1.4507 0.896-1.4507 1.6213-0.0427 2.6453-2.4747 3.072-3.456 3.072-3.2853 0-3.2853-2.2187-3.2853-3.2853v-10.155h6.9973c0.64 0 1.7067 0 1.7067-1.28 0-1.3227-1.024-1.3227-1.7067-1.3227h-6.9973v-3.4987c0-0.81066 0-1.7493-1.4507-1.7493-1.4933 0-1.4933 0.896-1.4933 1.7493v3.4987h-3.712c-0.68267 0-1.7493 0-1.7493 1.3227 0 1.28 1.0667 1.28 1.7067 1.28h3.7547v10.411c0 4.096 2.9013 5.632 6.016 5.632 3.1573 0 6.6133-1.8347 6.6133-5.632z" fill="#fff"/>
			<path d="m365.18 170.83c0-0.768 0-1.664-1.4933-1.664-1.408 0-1.4507 0.896-1.4507 1.6213-0.0427 2.6453-2.4747 3.072-3.456 3.072-3.2853 0-3.2853-2.2187-3.2853-3.2853v-10.155h6.9973c0.64 0 1.7067 0 1.7067-1.28 0-1.3227-1.024-1.3227-1.7067-1.3227h-6.9973v-3.4987c0-0.81066 0-1.7493-1.4507-1.7493-1.4933 0-1.4933 0.896-1.4933 1.7493v3.4987h-3.712c-0.68267 0-1.7493 0-1.7493 1.3227 0 1.28 1.0667 1.28 1.7067 1.28h3.7547v10.411c0 4.096 2.9013 5.632 6.016 5.632 3.1573 0 6.6133-1.8347 6.6133-5.632z" fill="#fff"/>
			<path d="m390.27 174.93c0-1.3227-1.0667-1.3227-1.7493-1.3227h-1.8773v-9.8987c0-4.3093-2.176-6.144-5.5467-6.144-2.8587 0-4.7787 1.4507-5.5893 2.2613v-7.936c0-1.3227-0.256-1.7493-1.7067-1.7493h-3.1147c-0.68266 0-1.7493 0-1.7493 1.3227 0 1.28 1.1093 1.28 1.7067 1.28h1.92v20.864h-1.8773c-0.68266 0-1.7493 0-1.7493 1.3227 0 1.28 1.1093 1.28 1.7067 1.28h6.784c0.59733 0 1.7067 0 1.7067-1.28 0-1.3227-1.0667-1.3227-1.7493-1.3227h-1.8773v-7.552c0-4.2667 3.1573-5.888 5.3333-5.888 2.2613 0 2.8587 1.1947 2.8587 3.7547v9.6853h-1.664c-0.68266 0-1.7493 0-1.7493 1.3227 0 1.28 1.152 1.28 1.7493 1.28h6.528c0.59733 0 1.7067 0 1.7067-1.28z" fill="#fff"/>
			<path d="m410.79 163.15c0-1.4933-1.4933-1.4933-2.0053-1.4933h-13.568c-0.512 0-2.0053 0-2.0053 1.4933 0 1.4933 1.4933 1.4933 2.0053 1.4933h13.568c0.512 0 2.0053 0 2.0053-1.4933z" fill="#fff"/>
			<path d="m435.07 174.93c0-1.3227-1.0667-1.3227-1.7493-1.3227h-1.8773v-9.8987c0-4.3093-2.176-6.144-5.5467-6.144-2.8587 0-4.7787 1.4507-5.5893 2.2613v-7.936c0-1.3227-0.256-1.7493-1.7067-1.7493h-3.1147c-0.68267 0-1.7493 0-1.7493 1.3227 0 1.28 1.1093 1.28 1.7067 1.28h1.92v20.864h-1.8773c-0.68267 0-1.7493 0-1.7493 1.3227 0 1.28 1.1093 1.28 1.7067 1.28h6.784c0.59733 0 1.7067 0 1.7067-1.28 0-1.3227-1.0667-1.3227-1.7493-1.3227h-1.8773v-7.552c0-4.2667 3.1573-5.888 5.3333-5.888 2.2613 0 2.8587 1.1947 2.8587 3.7547v9.6853h-1.664c-0.68267 0-1.7493 0-1.7493 1.3227 0 1.28 1.152 1.28 1.7493 1.28h6.528c0.59733 0 1.7067 0 1.7067-1.28z" fill="#fff"/>
			<path d="m457.77 174.88c0-1.28-1.0667-1.28-1.7067-1.28-1.792 0-2.2187-0.21333-2.56-0.34133v-9.216c0-3.0293-2.304-6.6133-8.448-6.6133-1.8347 0-6.1867 0-6.1867 3.1147 0 1.28 0.896 1.9627 1.92 1.9627 0.64 0 1.8347-0.384 1.8773-1.9627 0-0.34133 0.0427-0.384 0.89601-0.46933 0.59733-0.0427 1.152-0.0427 1.536-0.0427 3.2427 0 5.4613 1.3227 5.4613 4.352-7.552 0.128-12.8 2.2613-12.8 6.3573 0 2.944 2.688 5.7173 7.04 5.7173 1.5787 0 4.224-0.29867 6.2293-1.6213 0.93866 1.3227 2.9867 1.3653 4.608 1.3653 1.1947 0 2.1333 0 2.1333-1.3227zm-7.2107-4.3947c0 0.98134 0 1.8773-1.664 2.6453-1.536 0.72533-3.456 0.72533-3.7973 0.72533-2.6453 0-4.3947-1.4507-4.3947-3.1147 0-2.0907 3.6693-3.6693 9.856-3.84z" fill="#fff"/>
			<path d="m477.61 170.87c0-4.4373-5.504-5.3333-6.8693-5.5467l-2.9013-0.512c-1.2373-0.17066-4.1387-0.68266-4.1387-2.3467 0-1.1093 1.3653-2.432 5.4187-2.432 3.5413 0 4.1387 1.28 4.2667 2.3893 0.0427 0.72533 0.128 1.4507 1.4507 1.4507 1.4933 0 1.4933-0.896 1.4933-1.7493v-2.944c0-0.68267 0-1.7493-1.28-1.7493-1.024 0-1.1947 0.59734-1.28 0.896-1.8773-0.896-3.7547-0.896-4.5653-0.896-7.1253 0-8.1067 3.4987-8.1067 5.0347 0 3.9253 4.48 4.6507 8.4053 5.248 2.0907 0.34133 5.504 0.896 5.504 3.1573 0 1.5787-1.5787 2.9867-5.4613 2.9867-2.0053 0-4.3947-0.46933-5.4613-3.7973-0.21333-0.768-0.384-1.2373-1.4933-1.2373-1.4933 0-1.4933 0.896-1.4933 1.7493v4.1387c0 0.68266 0 1.7493 1.28 1.7493 0.384 0 1.0667-0.0427 1.5787-1.6213 2.0907 1.536 4.352 1.6213 5.5467 1.6213 6.7413 0 8.1067-3.5413 8.1067-5.5893z" fill="#fff"/>
			<path d="m502.27 174.93c0-1.3227-1.0667-1.3227-1.7493-1.3227h-1.8773v-9.8987c0-4.3093-2.176-6.144-5.5467-6.144-2.8587 0-4.7787 1.4507-5.5893 2.2613v-7.936c0-1.3227-0.256-1.7493-1.7067-1.7493h-3.1147c-0.68266 0-1.7493 0-1.7493 1.3227 0 1.28 1.1093 1.28 1.7067 1.28h1.92v20.864h-1.8773c-0.68266 0-1.7493 0-1.7493 1.3227 0 1.28 1.1093 1.28 1.7067 1.28h6.784c0.59733 0 1.7067 0 1.7067-1.28 0-1.3227-1.0667-1.3227-1.7493-1.3227h-1.8773v-7.552c0-4.2667 3.1573-5.888 5.3333-5.888 2.2613 0 2.8587 1.1947 2.8587 3.7547v9.6853h-1.664c-0.68266 0-1.7493 0-1.7493 1.3227 0 1.28 1.152 1.28 1.7493 1.28h6.528c0.59733 0 1.7067 0 1.7067-1.28z" fill="#fff"/>
		</g>
		<g transform="translate(-57.289 91.934)">
			<circle cx="320" cy="272" r="32" fill="none" stroke="#fff" stroke-width="2"/>
			<g aria-label="tt">
				<path d="m326.78 276.74c0-0.576 0-1.248-1.12-1.248-1.056 0-1.088 0.672-1.088 1.216-0.032 1.984-1.856 2.304-2.592 2.304-2.464 0-2.464-1.664-2.464-2.464v-7.616h5.248c0.48 0 1.28 0 1.28-0.96 0-0.992-0.768-0.992-1.28-0.992h-5.248v-2.624c0-0.608 0-1.312-1.088-1.312-1.12 0-1.12 0.672-1.12 1.312v2.624h-2.784c-0.512 0-1.312 0-1.312 0.992 0 0.96 0.8 0.96 1.28 0.96h2.816v7.808c0 3.072 2.176 4.224 4.512 4.224 2.368 0 4.96-1.376 4.96-4.224z" fill="#fff"/>
				<path d="m343.58 276.74c0-0.576 0-1.248-1.12-1.248-1.056 0-1.088 0.672-1.088 1.216-0.032 1.984-1.856 2.304-2.592 2.304-2.464 0-2.464-1.664-2.464-2.464v-7.616h5.248c0.48 0 1.28 0 1.28-0.96 0-0.992-0.768-0.992-1.28-0.992h-5.248v-2.624c0-0.608 0-1.312-1.088-1.312-1.12 0-1.12 0.672-1.12 1.312v2.624h-2.784c-0.512 0-1.312 0-1.312 0.992 0 0.96 0.8 0.96 1.28 0.96h2.816v7.808c0 3.072 2.176 4.224 4.512 4.224 2.368 0 4.96-1.376 4.96-4.224z" fill-opacity=".25" fill="#fff"/>
			</g>
		</g>
		<g stroke-width="2">
			<g transform="translate(174.71 -52.066)">
				<g aria-label="Match Start">
					<path d="m163.69 315.75c0-1.3227-0.896-1.3227-2.2613-1.3227v-20.864c1.3653 0 2.2613 0 2.2613-1.3227 0-1.28-1.0667-1.28-1.7067-1.28h-2.3893c-1.7493 0-1.92 0.59733-2.304 1.7067l-2.8587 8.6187c-0.512 1.536-0.896 2.7733-1.152 4.0107h-0.0427c-0.42667-2.0053-4.1813-13.056-4.2667-13.312-0.42667-1.024-1.4933-1.024-2.0907-1.024h-2.3893c-0.64 0-1.7067 0-1.7067 1.28 0 1.3227 0.896 1.3227 2.2613 1.3227v20.864c-1.3653 0-2.2613 0-2.2613 1.3227 0 1.28 1.0667 1.28 1.7067 1.28h3.4987c0.64 0 1.7067 0 1.7067-1.28 0-1.3227-0.896-1.3227-2.2613-1.3227v-20.352h0.0427c0.46933 1.9627 3.2 10.155 3.3707 10.709 0.34134 0.98133 0.89601 2.6027 1.1093 2.9013 0.256 0.34133 0.768 0.64 1.28 0.64 0.55467 0 1.152-0.34133 1.4933-0.93867 0.128-0.256 3.7547-11.051 4.2667-13.312h0.04267v20.352c-1.3653 0-2.2613 0-2.2613 1.3227 0 1.28 1.0667 1.28 1.7067 1.28h3.4987c0.64 0 1.7067 0 1.7067-1.28z" fill="#fff"/>
					<path d="m186.6 315.71c0-1.28-1.0667-1.28-1.7067-1.28-1.792 0-2.2187-0.21333-2.56-0.34133v-9.216c0-3.0293-2.304-6.6133-8.448-6.6133-1.8347 0-6.1867 0-6.1867 3.1147 0 1.28 0.896 1.9627 1.92 1.9627 0.64001 0 1.8347-0.384 1.8773-1.9627 0-0.34133 0.0427-0.384 0.896-0.46933 0.59733-0.0427 1.152-0.0427 1.536-0.0427 3.2427 0 5.4613 1.3227 5.4613 4.352-7.552 0.128-12.8 2.2613-12.8 6.3573 0 2.944 2.688 5.7173 7.04 5.7173 1.5787 0 4.224-0.29867 6.2293-1.6213 0.93867 1.3227 2.9867 1.3653 4.608 1.3653 1.1947 0 2.1333 0 2.1333-1.3227zm-7.2107-4.3947c0 0.98133 0 1.8773-1.664 2.6453-1.536 0.72533-3.456 0.72533-3.7973 0.72533-2.6453 0-4.3947-1.4507-4.3947-3.1147 0-2.0907 3.6693-3.6693 9.856-3.84z" fill="#fff"/>
					<path d="m206.02 311.66c0-0.768 0-1.664-1.4933-1.664-1.408 0-1.4507 0.896-1.4507 1.6213-0.0427 2.6453-2.4747 3.072-3.456 3.072-3.2853 0-3.2853-2.2187-3.2853-3.2853v-10.155h6.9973c0.64 0 1.7067 0 1.7067-1.28 0-1.3227-1.024-1.3227-1.7067-1.3227h-6.9973v-3.4987c0-0.81067 0-1.7493-1.4507-1.7493-1.4933 0-1.4933 0.896-1.4933 1.7493v3.4987h-3.712c-0.68267 0-1.7493 0-1.7493 1.3227 0 1.28 1.0667 1.28 1.7067 1.28h3.7547v10.411c0 4.096 2.9013 5.632 6.016 5.632 3.1573 0 6.6133-1.8347 6.6133-5.632z" fill="#fff"/>
					<path d="m229.14 312.38c0-1.1947-1.2373-1.1947-1.4933-1.1947-0.68267 0-1.1093 0.0853-1.408 0.93867-0.256 0.55466-1.0667 2.56-4.224 2.56-3.6267 0-6.6987-2.9867-6.6987-6.8693 0-2.048 1.1947-6.9547 6.9547-6.9547 0.89601 0 2.56 0 2.56 0.384 0.0427 1.4933 0.85333 2.0907 1.8773 2.0907s1.92-0.72534 1.92-1.9627c0-3.1147-4.4373-3.1147-6.3573-3.1147-7.3387 0-9.8987 5.8027-9.8987 9.5573 0 5.12 4.0107 9.472 9.3867 9.472 5.9307 0 7.3813-4.1813 7.3813-4.9067z" fill="#fff"/>
					<path d="m253.5 315.75c0-1.3227-1.0667-1.3227-1.7493-1.3227h-1.8773v-9.8987c0-4.3093-2.176-6.144-5.5467-6.144-2.8587 0-4.7787 1.4507-5.5893 2.2613v-7.936c0-1.3227-0.256-1.7493-1.7067-1.7493h-3.1147c-0.68267 0-1.7493 0-1.7493 1.3227 0 1.28 1.1093 1.28 1.7067 1.28h1.92v20.864h-1.8773c-0.68267 0-1.7493 0-1.7493 1.3227 0 1.28 1.1093 1.28 1.7067 1.28h6.784c0.59733 0 1.7067 0 1.7067-1.28 0-1.3227-1.0667-1.3227-1.7493-1.3227h-1.8773v-7.552c0-4.2667 3.1573-5.888 5.3333-5.888 2.2613 0 2.8587 1.1947 2.8587 3.7547v9.6853h-1.664c-0.68267 0-1.7493 0-1.7493 1.3227 0 1.28 1.152 1.28 1.7493 1.28h6.528c0.59734 0 1.7067 0 1.7067-1.28z" fill="#fff"/>
					<path d="m296.6 309.95c0-2.7307-1.536-4.5227-2.048-5.0773-1.7493-1.7067-2.9013-2.0053-6.2293-2.7733l-3.456-0.768c-1.792-0.512-3.4133-2.0053-3.4133-4.0107 0-2.176 2.0907-4.224 5.12-4.224 5.0347 0 5.6747 4.0107 5.9307 5.3333 0.128 0.93866 0.59733 1.1947 1.4507 1.1947 1.4933 0 1.4933-0.896 1.4933-1.7493v-5.632c0-0.68267 0-1.7493-1.28-1.7493-1.024 0-1.2373 0.72534-1.5787 2.0053-1.7493-1.4933-4.0533-2.0053-5.9733-2.0053-4.736 0-7.936 3.3707-7.936 6.9973 0 2.8587 1.9627 5.6747 5.504 6.6987l4.9067 1.152c1.1947 0.256 4.736 1.1093 4.736 4.8213 0 2.2187-1.8347 4.736-5.2053 4.736-1.1947 0-3.2853-0.17066-4.992-1.3227-1.792-1.152-1.9627-2.944-2.0053-3.712-0.0427-0.72533-0.0853-1.4933-1.4507-1.4933-1.4933 0-1.4933 0.896-1.4933 1.7493v5.632c0 0.68266 0 1.7493 1.28 1.7493 0.93867 0 1.1947-0.59733 1.5787-1.9627 1.7067 1.28 4.3093 1.9627 7.04 1.9627 4.9493 0 8.0213-3.7547 8.0213-7.552z" fill="#fff"/>
					<path d="m318.02 311.66c0-0.768 0-1.664-1.4933-1.664-1.408 0-1.4507 0.896-1.4507 1.6213-0.0427 2.6453-2.4747 3.072-3.456 3.072-3.2853 0-3.2853-2.2187-3.2853-3.2853v-10.155h6.9973c0.64 0 1.7067 0 1.7067-1.28 0-1.3227-1.024-1.3227-1.7067-1.3227h-6.9973v-3.4987c0-0.81067 0-1.7493-1.4507-1.7493-1.4933 0-1.4933 0.896-1.4933 1.7493v3.4987h-3.712c-0.68267 0-1.7493 0-1.7493 1.3227 0 1.28 1.0667 1.28 1.7067 1.28h3.7547v10.411c0 4.096 2.9013 5.632 6.016 5.632 3.1573 0 6.6133-1.8347 6.6133-5.632z" fill="#fff"/>
					<path d="m343.4 315.71c0-1.28-1.0667-1.28-1.7067-1.28-1.792 0-2.2187-0.21333-2.56-0.34133v-9.216c0-3.0293-2.304-6.6133-8.448-6.6133-1.8347 0-6.1867 0-6.1867 3.1147 0 1.28 0.896 1.9627 1.92 1.9627 0.64 0 1.8347-0.384 1.8773-1.9627 0-0.34133 0.0427-0.384 0.896-0.46933 0.59733-0.0427 1.152-0.0427 1.536-0.0427 3.2427 0 5.4613 1.3227 5.4613 4.352-7.552 0.128-12.8 2.2613-12.8 6.3573 0 2.944 2.688 5.7173 7.04 5.7173 1.5787 0 4.224-0.29867 6.2293-1.6213 0.93867 1.3227 2.9867 1.3653 4.608 1.3653 1.1947 0 2.1333 0 2.1333-1.3227zm-7.2107-4.3947c0 0.98133 0 1.8773-1.664 2.6453-1.536 0.72533-3.456 0.72533-3.7973 0.72533-2.6453 0-4.3947-1.4507-4.3947-3.1147 0-2.0907 3.6693-3.6693 9.856-3.84z" fill="#fff"/>
					<path d="m364.44 301.03c0-0.85334-0.512-2.6453-4.0533-2.6453-2.176 0-4.9067 0.768-7.2533 3.456v-1.4507c0-1.3227-0.256-1.7493-1.7067-1.7493h-4.6933c-0.64 0-1.7067 0-1.7067 1.28 0 1.3227 1.024 1.3227 1.7067 1.3227h3.456v13.184h-3.456c-0.64 0-1.7067 0-1.7067 1.28 0 1.3227 1.024 1.3227 1.7067 1.3227h11.136c0.64 0 1.7493 0 1.7493-1.28 0-1.3227-1.1093-1.3227-1.7493-1.3227h-4.736v-5.3333c0-4.0107 2.5173-8.1067 7.68-8.1067 0.0427 1.024 0.768 1.8773 1.8347 1.8773 0.93866 0 1.792-0.68266 1.792-1.8347z" fill="#fff"/>
					<path d="m385.22 311.66c0-0.768 0-1.664-1.4933-1.664-1.408 0-1.4507 0.896-1.4507 1.6213-0.0427 2.6453-2.4747 3.072-3.456 3.072-3.2853 0-3.2853-2.2187-3.2853-3.2853v-10.155h6.9973c0.64 0 1.7067 0 1.7067-1.28 0-1.3227-1.024-1.3227-1.7067-1.3227h-6.9973v-3.4987c0-0.81067 0-1.7493-1.4507-1.7493-1.4933 0-1.4933 0.896-1.4933 1.7493v3.4987h-3.712c-0.68267 0-1.7493 0-1.7493 1.3227 0 1.28 1.0667 1.28 1.7067 1.28h3.7547v10.411c0 4.096 2.9013 5.632 6.016 5.632 3.1573 0 6.6133-1.8347 6.6133-5.632z" fill="#fff"/>
				</g>
				<rect x="128" y="272" width="272" height="64" fill="none" stroke="#fff" stroke-width="2"/>
			</g>
			<path d="m342.71 283.93-48 48" fill="none" marker-end="url(#Arrow2)" stroke="#fff" stroke-linecap="round"/>
			<path d="m239.71 386.93-48 48" fill="none" marker-end="url(#Arrow2)" stroke="#fff" stroke-linecap="round"/>
		</g>
		<g transform="translate(-161.29 195.93)">
			<circle cx="320" cy="272" r="32" fill="none" stroke="#fff" stroke-width="2"/>
			<g aria-label="th-">
				<path d="m309.58 276.74c0-0.576 0-1.248-1.12-1.248-1.056 0-1.088 0.672-1.088 1.216-0.032 1.984-1.856 2.304-2.592 2.304-2.464 0-2.464-1.664-2.464-2.464v-7.616h5.248c0.48 0 1.28 0 1.28-0.96 0-0.992-0.768-0.992-1.28-0.992h-5.248v-2.624c0-0.608 0-1.312-1.088-1.312-1.12 0-1.12 0.672-1.12 1.312v2.624h-2.784c-0.512 0-1.312 0-1.312 0.992 0 0.96 0.8 0.96 1.28 0.96h2.816v7.808c0 3.072 2.176 4.224 4.512 4.224 2.368 0 4.96-1.376 4.96-4.224z" fill-opacity=".25" fill="#fff"/>
				<path d="m328.4 279.81c0-0.992-0.8-0.992-1.312-0.992h-1.408v-7.424c0-3.232-1.632-4.608-4.16-4.608-2.144 0-3.584 1.088-4.192 1.696v-5.952c0-0.992-0.192-1.312-1.28-1.312h-2.336c-0.512 0-1.312 0-1.312 0.992 0 0.96 0.832 0.96 1.28 0.96h1.44v15.648h-1.408c-0.512 0-1.312 0-1.312 0.992 0 0.96 0.832 0.96 1.28 0.96h5.088c0.448 0 1.28 0 1.28-0.96 0-0.992-0.8-0.992-1.312-0.992h-1.408v-5.664c0-3.2 2.368-4.416 4-4.416 1.696 0 2.144 0.896 2.144 2.816v7.264h-1.248c-0.512 0-1.312 0-1.312 0.992 0 0.96 0.864 0.96 1.312 0.96h4.896c0.448 0 1.28 0 1.28-0.96z" fill="#fff"/>
				<path d="m343.79 270.98c0-1.12-1.12-1.12-1.504-1.12h-10.176c-0.384 0-1.504 0-1.504 1.12s1.12 1.12 1.504 1.12h10.176c0.384 0 1.504 0 1.504-1.12z" fill-opacity=".25" fill="#fff"/>
			</g>
		</g>
		<path d="m262.73 395.93-0.0226 26" fill="none" marker-end="url(#Arrow2)" stroke="#fff" stroke-linecap="round" stroke-width="2"/>
		<g transform="translate(-57.289 195.93)">
			<circle cx="320" cy="272" r="32" fill="none" stroke="#fff" stroke-width="2"/>
			<g aria-label="-ha">
				<path d="m310.19 270.98c0-1.12-1.12-1.12-1.504-1.12h-10.176c-0.384 0-1.504 0-1.504 1.12s1.12 1.12 1.504 1.12h10.176c0.384 0 1.504 0 1.504-1.12z" fill-opacity=".25" fill="#fff"/>
				<path d="m328.4 279.81c0-0.992-0.8-0.992-1.312-0.992h-1.408v-7.424c0-3.232-1.632-4.608-4.16-4.608-2.144 0-3.584 1.088-4.192 1.696v-5.952c0-0.992-0.192-1.312-1.28-1.312h-2.336c-0.512 0-1.312 0-1.312 0.992 0 0.96 0.832 0.96 1.28 0.96h1.44v15.648h-1.408c-0.512 0-1.312 0-1.312 0.992 0 0.96 0.832 0.96 1.28 0.96h5.088c0.448 0 1.28 0 1.28-0.96 0-0.992-0.8-0.992-1.312-0.992h-1.408v-5.664c0-3.2 2.368-4.416 4-4.416 1.696 0 2.144 0.896 2.144 2.816v7.264h-1.248c-0.512 0-1.312 0-1.312 0.992 0 0.96 0.864 0.96 1.312 0.96h4.896c0.448 0 1.28 0 1.28-0.96z" fill="#fff"/>
				<path d="m345.42 279.78c0-0.96-0.8-0.96-1.28-0.96-1.344 0-1.664-0.16-1.92-0.256v-6.912c0-2.272-1.728-4.96-6.336-4.96-1.376 0-4.64 0-4.64 2.336 0 0.96 0.672 1.472 1.44 1.472 0.48 0 1.376-0.288 1.408-1.472 0-0.256 0.032-0.288 0.672-0.352 0.448-0.032 0.864-0.032 1.152-0.032 2.432 0 4.096 0.992 4.096 3.264-5.664 0.096-9.6 1.696-9.6 4.768 0 2.208 2.016 4.288 5.28 4.288 1.184 0 3.168-0.224 4.672-1.216 0.704 0.992 2.24 1.024 3.456 1.024 0.896 0 1.6 0 1.6-0.992zm-5.408-3.296c0 0.736 0 1.408-1.248 1.984-1.152 0.544-2.592 0.544-2.848 0.544-1.984 0-3.296-1.088-3.296-2.336 0-1.568 2.752-2.752 7.392-2.88z" fill-opacity=".25" fill="#fff"/>
			</g>
		</g>
		<path d="m286.71 386.93 48 48" fill="none" marker-end="url(#Arrow2)" stroke="#fff" stroke-linecap="round" stroke-width="2"/>
		<g transform="translate(30.711 -52.066)">
			<circle cx="336" cy="520" r="32" fill="none" stroke="#fff" stroke-width="2"/>
			<g aria-label="sh">
				<path d="m325.9 524.77c0-3.328-4.128-4-5.152-4.16l-2.176-0.384c-0.928-0.128-3.104-0.512-3.104-1.76 0-0.832 1.024-1.824 4.064-1.824 2.656 0 3.104 0.96 3.2 1.792 0.032 0.544 0.096 1.088 1.088 1.088 1.12 0 1.12-0.672 1.12-1.312v-2.208c0-0.512 0-1.312-0.96-1.312-0.768 0-0.896 0.448-0.96 0.672-1.408-0.672-2.816-0.672-3.424-0.672-5.344 0-6.08 2.624-6.08 3.776 0 2.944 3.36 3.488 6.304 3.936 1.568 0.256 4.128 0.672 4.128 2.368 0 1.184-1.184 2.24-4.096 2.24-1.504 0-3.296-0.352-4.096-2.848-0.16-0.576-0.288-0.928-1.12-0.928-1.12 0-1.12 0.672-1.12 1.312v3.104c0 0.512 0 1.312 0.96 1.312 0.288 0 0.8-0.032 1.184-1.216 1.568 1.152 3.264 1.216 4.16 1.216 5.056 0 6.08-2.656 6.08-4.192z" fill-opacity=".25" fill="#fff"/>
				<path d="m344.4 527.81c0-0.992-0.8-0.992-1.312-0.992h-1.408v-7.424c0-3.232-1.632-4.608-4.16-4.608-2.144 0-3.584 1.088-4.192 1.696v-5.952c0-0.992-0.192-1.312-1.28-1.312h-2.336c-0.512 0-1.312 0-1.312 0.992 0 0.96 0.832 0.96 1.28 0.96h1.44v15.648h-1.408c-0.512 0-1.312 0-1.312 0.992 0 0.96 0.832 0.96 1.28 0.96h5.088c0.448 0 1.28 0 1.28-0.96 0-0.992-0.8-0.992-1.312-0.992h-1.408v-5.664c0-3.2 2.368-4.416 4-4.416 1.696 0 2.144 0.896 2.144 2.816v7.264h-1.248c-0.512 0-1.312 0-1.312 0.992 0 0.96 0.864 0.96 1.312 0.96h4.896c0.448 0 1.28 0 1.28-0.96z" fill="#fff"/>
			</g>
		</g>
		<g transform="translate(-51.289 -52.066)">
			<circle cx="776" cy="520" r="32" fill="none" stroke="#fff" stroke-width="2"/>
			<g aria-label="sh">
				<path d="m765.9 524.77c0-3.328-4.128-4-5.152-4.16l-2.176-0.384c-0.928-0.128-3.104-0.512-3.104-1.76 0-0.832 1.024-1.824 4.064-1.824 2.656 0 3.104 0.96 3.2 1.792 0.032 0.544 0.096 1.088 1.088 1.088 1.12 0 1.12-0.672 1.12-1.312v-2.208c0-0.512 0-1.312-0.96-1.312-0.768 0-0.896 0.448-0.96 0.672-1.408-0.672-2.816-0.672-3.424-0.672-5.344 0-6.08 2.624-6.08 3.776 0 2.944 3.36 3.488 6.304 3.936 1.568 0.256 4.128 0.672 4.128 2.368 0 1.184-1.184 2.24-4.096 2.24-1.504 0-3.296-0.352-4.096-2.848-0.16-0.576-0.288-0.928-1.12-0.928-1.12 0-1.12 0.672-1.12 1.312v3.104c0 0.512 0 1.312 0.96 1.312 0.288 0 0.8-0.032 1.184-1.216 1.568 1.152 3.264 1.216 4.16 1.216 5.056 0 6.08-2.656 6.08-4.192z" fill-opacity=".25" fill="#fff"/>
				<path d="m784.4 527.81c0-0.992-0.8-0.992-1.312-0.992h-1.408v-7.424c0-3.232-1.632-4.608-4.16-4.608-2.144 0-3.584 1.088-4.192 1.696v-5.952c0-0.992-0.192-1.312-1.28-1.312h-2.336c-0.512 0-1.312 0-1.312 0.992 0 0.96 0.832 0.96 1.28 0.96h1.44v15.648h-1.408c-0.512 0-1.312 0-1.312 0.992 0 0.96 0.832 0.96 1.28 0.96h5.088c0.448 0 1.28 0 1.28-0.96 0-0.992-0.8-0.992-1.312-0.992h-1.408v-5.664c0-3.2 2.368-4.416 4-4.416 1.696 0 2.144 0.896 2.144 2.816v7.264h-1.248c-0.512 0-1.312 0-1.312 0.992 0 0.96 0.864 0.96 1.312 0.96h4.896c0.448 0 1.28 0 1.28-0.96z" fill="#fff"/>
			</g>
		</g>
		<path d="m534.8 283.93 48 48" fill="none" marker-end="url(#Arrow2)" stroke="#fff" stroke-linecap="round" stroke-width="2"/>
		<path d="m591.71 386.93-48 48" fill="none" marker-end="url(#Arrow2)" stroke="#fff" stroke-linecap="round" stroke-width="2"/>
		<g transform="translate(190.71 195.93)">
			<circle cx="320" cy="272" r="32" fill="none" stroke="#fff" stroke-width="2"/>
			<g aria-label="th-">
				<path d="m309.58 276.74c0-0.576 0-1.248-1.12-1.248-1.056 0-1.088 0.672-1.088 1.216-0.032 1.984-1.856 2.304-2.592 2.304-2.464 0-2.464-1.664-2.464-2.464v-7.616h5.248c0.48 0 1.28 0 1.28-0.96 0-0.992-0.768-0.992-1.28-0.992h-5.248v-2.624c0-0.608 0-1.312-1.088-1.312-1.12 0-1.12 0.672-1.12 1.312v2.624h-2.784c-0.512 0-1.312 0-1.312 0.992 0 0.96 0.8 0.96 1.28 0.96h2.816v7.808c0 3.072 2.176 4.224 4.512 4.224 2.368 0 4.96-1.376 4.96-4.224z" fill-opacity=".25" fill="#fff"/>
				<path d="m328.4 279.81c0-0.992-0.8-0.992-1.312-0.992h-1.408v-7.424c0-3.232-1.632-4.608-4.16-4.608-2.144 0-3.584 1.088-4.192 1.696v-5.952c0-0.992-0.192-1.312-1.28-1.312h-2.336c-0.512 0-1.312 0-1.312 0.992 0 0.96 0.832 0.96 1.28 0.96h1.44v15.648h-1.408c-0.512 0-1.312 0-1.312 0.992 0 0.96 0.832 0.96 1.28 0.96h5.088c0.448 0 1.28 0 1.28-0.96 0-0.992-0.8-0.992-1.312-0.992h-1.408v-5.664c0-3.2 2.368-4.416 4-4.416 1.696 0 2.144 0.896 2.144 2.816v7.264h-1.248c-0.512 0-1.312 0-1.312 0.992 0 0.96 0.864 0.96 1.312 0.96h4.896c0.448 0 1.28 0 1.28-0.96z" fill="#fff"/>
				<path d="m343.79 270.98c0-1.12-1.12-1.12-1.504-1.12h-10.176c-0.384 0-1.504 0-1.504 1.12s1.12 1.12 1.504 1.12h10.176c0.384 0 1.504 0 1.504-1.12z" fill-opacity=".25" fill="#fff"/>
			</g>
		</g>
		<path d="m614.73 395.93-0.0226 26" fill="none" marker-end="url(#Arrow2)" stroke="#fff" stroke-linecap="round" stroke-width="2"/>
		<g transform="translate(294.71 195.93)">
			<circle cx="320" cy="272" r="32" fill="none" stroke="#fff" stroke-width="2"/>
			<g aria-label="-ha">
				<path d="m310.19 270.98c0-1.12-1.12-1.12-1.504-1.12h-10.176c-0.384 0-1.504 0-1.504 1.12s1.12 1.12 1.504 1.12h10.176c0.384 0 1.504 0 1.504-1.12z" fill-opacity=".25" fill="#fff"/>
				<path d="m328.4 279.81c0-0.992-0.8-0.992-1.312-0.992h-1.408v-7.424c0-3.232-1.632-4.608-4.16-4.608-2.144 0-3.584 1.088-4.192 1.696v-5.952c0-0.992-0.192-1.312-1.28-1.312h-2.336c-0.512 0-1.312 0-1.312 0.992 0 0.96 0.832 0.96 1.28 0.96h1.44v15.648h-1.408c-0.512 0-1.312 0-1.312 0.992 0 0.96 0.832 0.96 1.28 0.96h5.088c0.448 0 1.28 0 1.28-0.96 0-0.992-0.8-0.992-1.312-0.992h-1.408v-5.664c0-3.2 2.368-4.416 4-4.416 1.696 0 2.144 0.896 2.144 2.816v7.264h-1.248c-0.512 0-1.312 0-1.312 0.992 0 0.96 0.864 0.96 1.312 0.96h4.896c0.448 0 1.28 0 1.28-0.96z" fill="#fff"/>
				<path d="m345.42 279.78c0-0.96-0.8-0.96-1.28-0.96-1.344 0-1.664-0.16-1.92-0.256v-6.912c0-2.272-1.728-4.96-6.336-4.96-1.376 0-4.64 0-4.64 2.336 0 0.96 0.672 1.472 1.44 1.472 0.48 0 1.376-0.288 1.408-1.472 0-0.256 0.032-0.288 0.672-0.352 0.448-0.032 0.864-0.032 1.152-0.032 2.432 0 4.096 0.992 4.096 3.264-5.664 0.096-9.6 1.696-9.6 4.768 0 2.208 2.016 4.288 5.28 4.288 1.184 0 3.168-0.224 4.672-1.216 0.704 0.992 2.24 1.024 3.456 1.024 0.896 0 1.6 0 1.6-0.992zm-5.408-3.296c0 0.736 0 1.408-1.248 1.984-1.152 0.544-2.592 0.544-2.848 0.544-1.984 0-3.296-1.088-3.296-2.336 0-1.568 2.752-2.752 7.392-2.88z" fill-opacity=".25" fill="#fff"/>
			</g>
		</g>
		<path d="m638.71 386.93 48 48" fill="none" marker-end="url(#Arrow2)" stroke="#fff" stroke-linecap="round" stroke-width="2"/>
		<g transform="translate(296.71 91.934)">
			<circle cx="318" cy="272" r="32" fill="none" stroke="#fff" stroke-width="2"/>
			<g aria-label="tth">
				<path d="m307.58 276.74c0-0.576 0-1.248-1.12-1.248-1.056 0-1.088 0.672-1.088 1.216-0.032 1.984-1.856 2.304-2.592 2.304-2.464 0-2.464-1.664-2.464-2.464v-7.616h5.248c0.48 0 1.28 0 1.28-0.96 0-0.992-0.768-0.992-1.28-0.992h-5.248v-2.624c0-0.608 0-1.312-1.088-1.312-1.12 0-1.12 0.672-1.12 1.312v2.624h-2.784c-0.512 0-1.312 0-1.312 0.992 0 0.96 0.8 0.96 1.28 0.96h2.816v7.808c0 3.072 2.176 4.224 4.512 4.224 2.368 0 4.96-1.376 4.96-4.224z" fill-opacity=".25" fill="#fff"/>
				<path d="m324.38 276.74c0-0.576 0-1.248-1.12-1.248-1.056 0-1.088 0.672-1.088 1.216-0.032 1.984-1.856 2.304-2.592 2.304-2.464 0-2.464-1.664-2.464-2.464v-7.616h5.248c0.48 0 1.28 0 1.28-0.96 0-0.992-0.768-0.992-1.28-0.992h-5.248v-2.624c0-0.608 0-1.312-1.088-1.312-1.12 0-1.12 0.672-1.12 1.312v2.624h-2.784c-0.512 0-1.312 0-1.312 0.992 0 0.96 0.8 0.96 1.28 0.96h2.816v7.808c0 3.072 2.176 4.224 4.512 4.224 2.368 0 4.96-1.376 4.96-4.224z" fill="#fff"/>
				<path d="m343.2 279.81c0-0.992-0.8-0.992-1.312-0.992h-1.408v-7.424c0-3.232-1.632-4.608-4.16-4.608-2.144 0-3.584 1.088-4.192 1.696v-5.952c0-0.992-0.192-1.312-1.28-1.312h-2.336c-0.512 0-1.312 0-1.312 0.992 0 0.96 0.832 0.96 1.28 0.96h1.44v15.648h-1.408c-0.512 0-1.312 0-1.312 0.992 0 0.96 0.832 0.96 1.28 0.96h5.088c0.448 0 1.28 0 1.28-0.96 0-0.992-0.8-0.992-1.312-0.992h-1.408v-5.664c0-3.2 2.368-4.416 4-4.416 1.696 0 2.144 0.896 2.144 2.816v7.264h-1.248c-0.512 0-1.312 0-1.312 0.992 0 0.96 0.864 0.96 1.312 0.96h4.896c0.448 0 1.28 0 1.28-0.96z" fill-opacity=".25" fill="#fff"/>
			</g>
		</g>
		<g stroke-linecap="round" stroke-width="2">
			<g aria-label="+15">
				<path d="m254.14 382.86c0-0.56-0.56-0.56-0.752-0.56h-2.272v-2.288c0-0.192 0-0.752-0.56-0.752s-0.56 0.56-0.56 0.752v2.288h-2.272c-0.192 0-0.752 0-0.752 0.56s0.56 0.56 0.752 0.56h2.272v2.288c0 0.192 0 0.752 0.56 0.752s0.56-0.56 0.56-0.752v-2.288h2.272c0.192 0 0.752 0 0.752-0.56z" fill="#fff"/>
				<path d="m261.83 387.28c0-0.496-0.384-0.496-0.64-0.496h-1.456v-8.32c0-0.256 0-0.656-0.48-0.656-0.304 0-0.4 0.192-0.48 0.384-0.608 1.36-1.44 1.536-1.744 1.568-0.256 0.016-0.592 0.048-0.592 0.496 0 0.4 0.288 0.48 0.528 0.48 0.304 0 0.96-0.096 1.664-0.704v6.752h-1.456c-0.256 0-0.64 0-0.64 0.496 0 0.48 0.4 0.48 0.64 0.48h4.016c0.24 0 0.64 0 0.64-0.48z" fill="#fff"/>
				<path d="m270.71 384.72c0-1.616-1.232-3.184-3.12-3.184-0.56 0-1.264 0.112-1.92 0.464v-3.04h3.84c0.24 0 0.64 0 0.64-0.48 0-0.496-0.384-0.496-0.64-0.496h-4.304c-0.528 0-0.64 0.144-0.64 0.656v4.256c0 0.288 0 0.656 0.512 0.656 0.288 0 0.352-0.08 0.48-0.24 0.432-0.512 1.088-0.8 2.016-0.8 1.312 0 2.032 1.168 2.032 2.208 0 1.28-1.136 2.24-2.48 2.24-0.448 0-1.472-0.128-1.92-1.008 0.08-0.08 0.208-0.192 0.208-0.512 0-0.464-0.368-0.72-0.704-0.72-0.24 0-0.72 0.144-0.72 0.768 0 1.328 1.344 2.448 3.136 2.448 2 0 3.584-1.44 3.584-3.216z" fill="#fff"/>
			</g>
			<g aria-label="+30">
				<path d="m254.14 487.93c0-0.56-0.56-0.56-0.752-0.56h-2.272v-2.288c0-0.192 0-0.752-0.56-0.752s-0.56 0.56-0.56 0.752v2.288h-2.272c-0.192 0-0.752 0-0.752 0.56s0.56 0.56 0.752 0.56h2.272v2.288c0 0.192 0 0.752 0.56 0.752s0.56-0.56 0.56-0.752v-2.288h2.272c0.192 0 0.752 0 0.752-0.56z" fill="#fff"/>
				<path d="m262.44 490.04c0-1.136-0.752-2.08-1.808-2.56 0.896-0.576 1.344-1.488 1.344-2.352 0-1.184-1.168-2.256-3.008-2.256-1.92 0-3.04 0.768-3.04 1.872 0 0.528 0.4 0.752 0.72 0.752 0.336 0 0.704-0.272 0.704-0.72 0-0.224-0.096-0.384-0.144-0.432 0.496-0.496 1.632-0.496 1.776-0.496 1.088 0 1.888 0.576 1.888 1.296 0 0.48-0.24 1.04-0.672 1.392-0.512 0.416-0.912 0.448-1.488 0.48-0.912 0.064-1.152 0.064-1.152 0.528 0 0.496 0.384 0.496 0.64 0.496h0.736c1.584 0 2.4 1.072 2.4 2 0 0.976-0.896 1.984-2.352 1.984-0.64 0-1.872-0.176-2.288-0.928 0.08-0.08 0.192-0.176 0.192-0.496 0-0.384-0.304-0.704-0.704-0.704-0.368 0-0.72 0.24-0.72 0.752 0 1.424 1.552 2.352 3.52 2.352 2.096 0 3.456-1.472 3.456-2.96z" fill="#fff"/>
				<path d="m270.74 487.94c0-2.976-1.632-5.072-3.392-5.072-1.792 0-3.392 2.144-3.392 5.056 0 2.976 1.632 5.072 3.392 5.072 1.792 0 3.392-2.144 3.392-5.056zm-1.104-0.176c0 2.368-1.04 4.256-2.288 4.256s-2.288-1.888-2.288-4.256c0-2.336 1.104-3.92 2.288-3.92 1.168 0 2.288 1.568 2.288 3.92z" fill="#fff"/>
			</g>
			<g aria-label="+0">
				<path d="m153.94 487.93c0-0.56-0.56-0.56-0.752-0.56h-2.272v-2.288c0-0.192 0-0.752-0.56-0.752s-0.56 0.56-0.56 0.752v2.288h-2.272c-0.192 0-0.752 0-0.752 0.56s0.56 0.56 0.752 0.56h2.272v2.288c0 0.192 0 0.752 0.56 0.752s0.56-0.56 0.56-0.752v-2.288h2.272c0.192 0 0.752 0 0.752-0.56z" fill="#fff"/>
				<path d="m162.14 487.94c0-2.976-1.632-5.072-3.392-5.072-1.792 0-3.392 2.144-3.392 5.056 0 2.976 1.632 5.072 3.392 5.072 1.792 0 3.392-2.144 3.392-5.056zm-1.104-0.176c0 2.368-1.04 4.256-2.288 4.256s-2.288-1.888-2.288-4.256c0-2.336 1.104-3.92 2.288-3.92 1.168 0 2.288 1.568 2.288 3.92z" fill="#fff"/>
				<path d="m361.73 487.93c0-0.56-0.56-0.56-0.752-0.56h-2.272v-2.288c0-0.192 0-0.752-0.56-0.752s-0.56 0.56-0.56 0.752v2.288h-2.272c-0.192 0-0.752 0-0.752 0.56s0.56 0.56 0.752 0.56h2.272v2.288c0 0.192 0 0.752 0.56 0.752s0.56-0.56 0.56-0.752v-2.288h2.272c0.192 0 0.752 0 0.752-0.56z" fill="#fff"/>
				<path d="m369.94 487.94c0-2.976-1.632-5.072-3.392-5.072-1.792 0-3.392 2.144-3.392 5.056 0 2.976 1.632 5.072 3.392 5.072 1.792 0 3.392-2.144 3.392-5.056zm-1.104-0.176c0 2.368-1.04 4.256-2.288 4.256s-2.288-1.888-2.288-4.256c0-2.336 1.104-3.92 2.288-3.92 1.168 0 2.288 1.568 2.288 3.92z" fill="#fff"/>
			</g>
			<g aria-label="-5">
				<path d="m609.85 382.86c0-0.56-0.56-0.56-0.752-0.56h-5.088c-0.192 0-0.752 0-0.752 0.56s0.56 0.56 0.752 0.56h5.088c0.192 0 0.752 0 0.752-0.56z" fill="#fff"/>
				<path d="m618.31 384.72c0-1.616-1.232-3.184-3.12-3.184-0.56 0-1.264 0.112-1.92 0.464v-3.04h3.84c0.24 0 0.64 0 0.64-0.48 0-0.496-0.384-0.496-0.64-0.496h-4.304c-0.528 0-0.64 0.144-0.64 0.656v4.256c0 0.288 0 0.656 0.512 0.656 0.288 0 0.352-0.08 0.48-0.24 0.432-0.512 1.088-0.8 2.016-0.8 1.312 0 2.032 1.168 2.032 2.208 0 1.28-1.136 2.24-2.48 2.24-0.448 0-1.472-0.128-1.92-1.008 0.08-0.08 0.208-0.192 0.208-0.512 0-0.464-0.368-0.72-0.704-0.72-0.24 0-0.72 0.144-0.72 0.768 0 1.328 1.344 2.448 3.136 2.448 2 0 3.584-1.44 3.584-3.216z" fill="#fff"/>
			</g>
			<g aria-label="+30">
				<path d="m606.14 487.93c0-0.56-0.56-0.56-0.752-0.56h-2.272v-2.288c0-0.192 0-0.752-0.56-0.752s-0.56 0.56-0.56 0.752v2.288h-2.272c-0.192 0-0.752 0-0.752 0.56s0.56 0.56 0.752 0.56h2.272v2.288c0 0.192 0 0.752 0.56 0.752s0.56-0.56 0.56-0.752v-2.288h2.272c0.192 0 0.752 0 0.752-0.56z" fill="#fff"/>
				<path d="m614.44 490.04c0-1.136-0.752-2.08-1.808-2.56 0.896-0.576 1.344-1.488 1.344-2.352 0-1.184-1.168-2.256-3.008-2.256-1.92 0-3.04 0.768-3.04 1.872 0 0.528 0.4 0.752 0.72 0.752 0.336 0 0.704-0.272 0.704-0.72 0-0.224-0.096-0.384-0.144-0.432 0.496-0.496 1.632-0.496 1.776-0.496 1.088 0 1.888 0.576 1.888 1.296 0 0.48-0.24 1.04-0.672 1.392-0.512 0.416-0.912 0.448-1.488 0.48-0.912 0.064-1.152 0.064-1.152 0.528 0 0.496 0.384 0.496 0.64 0.496h0.736c1.584 0 2.4 1.072 2.4 2 0 0.976-0.896 1.984-2.352 1.984-0.64 0-1.872-0.176-2.288-0.928 0.08-0.08 0.192-0.176 0.192-0.496 0-0.384-0.304-0.704-0.704-0.704-0.368 0-0.72 0.24-0.72 0.752 0 1.424 1.552 2.352 3.52 2.352 2.096 0 3.456-1.472 3.456-2.96z" fill="#fff"/>
				<path d="m622.74 487.94c0-2.976-1.632-5.072-3.392-5.072-1.792 0-3.392 2.144-3.392 5.056 0 2.976 1.632 5.072 3.392 5.072 1.792 0 3.392-2.144 3.392-5.056zm-1.104-0.176c0 2.368-1.04 4.256-2.288 4.256s-2.288-1.888-2.288-4.256c0-2.336 1.104-3.92 2.288-3.92 1.168 0 2.288 1.568 2.288 3.92z" fill="#fff"/>
			</g>
			<g aria-label="+15">
				<path d="m502.14 487.93c0-0.56-0.56-0.56-0.752-0.56h-2.272v-2.288c0-0.192 0-0.752-0.56-0.752s-0.56 0.56-0.56 0.752v2.288h-2.272c-0.192 0-0.752 0-0.752 0.56s0.56 0.56 0.752 0.56h2.272v2.288c0 0.192 0 0.752 0.56 0.752s0.56-0.56 0.56-0.752v-2.288h2.272c0.192 0 0.752 0 0.752-0.56z" fill="#fff"/>
				<path d="m509.83 492.34c0-0.496-0.384-0.496-0.64-0.496h-1.456v-8.32c0-0.256 0-0.656-0.48-0.656-0.304 0-0.4 0.192-0.48 0.384-0.608 1.36-1.44 1.536-1.744 1.568-0.256 0.016-0.592 0.048-0.592 0.496 0 0.4 0.288 0.48 0.528 0.48 0.304 0 0.96-0.096 1.664-0.704v6.752h-1.456c-0.256 0-0.64 0-0.64 0.496 0 0.48 0.4 0.48 0.64 0.48h4.016c0.24 0 0.64 0 0.64-0.48z" fill="#fff"/>
				<path d="m518.71 489.78c0-1.616-1.232-3.184-3.12-3.184-0.56 0-1.264 0.112-1.92 0.464v-3.04h3.84c0.24 0 0.64 0 0.64-0.48 0-0.496-0.384-0.496-0.64-0.496h-4.304c-0.528 0-0.64 0.144-0.64 0.656v4.256c0 0.288 0 0.656 0.512 0.656 0.288 0 0.352-0.08 0.48-0.24 0.432-0.512 1.088-0.8 2.016-0.8 1.312 0 2.032 1.168 2.032 2.208 0 1.28-1.136 2.24-2.48 2.24-0.448 0-1.472-0.128-1.92-1.008 0.08-0.08 0.208-0.192 0.208-0.512 0-0.464-0.368-0.72-0.704-0.72-0.24 0-0.72 0.144-0.72 0.768 0 1.328 1.344 2.448 3.136 2.448 2 0 3.584-1.44 3.584-3.216z" fill="#fff"/>
			</g>
			<g aria-label="+0">
				<path d="m719.94 487.93c0-0.56-0.56-0.56-0.752-0.56h-2.272v-2.288c0-0.192 0-0.752-0.56-0.752s-0.56 0.56-0.56 0.752v2.288h-2.272c-0.192 0-0.752 0-0.752 0.56s0.56 0.56 0.752 0.56h2.272v2.288c0 0.192 0 0.752 0.56 0.752s0.56-0.56 0.56-0.752v-2.288h2.272c0.192 0 0.752 0 0.752-0.56z" fill="#fff"/>
				<path d="m728.14 487.94c0-2.976-1.632-5.072-3.392-5.072-1.792 0-3.392 2.144-3.392 5.056 0 2.976 1.632 5.072 3.392 5.072 1.792 0 3.392-2.144 3.392-5.056zm-1.104-0.176c0 2.368-1.04 4.256-2.288 4.256s-2.288-1.888-2.288-4.256c0-2.336 1.104-3.92 2.288-3.92 1.168 0 2.288 1.568 2.288 3.92z" fill="#fff"/>
			</g>
		</g>
	</g>
</svg>
